<?xml version="1.0" standalone="no"?>
<!DOCTYPE svg PUBLIC "-//W3C//DTD SVG 20010904//EN"
 "http://www.w3.org/TR/2001/REC-SVG-20010904/DTD/svg10.dtd">
<svg version="1.0" xmlns="http://www.w3.org/2000/svg"
 width="512.000000pt" height="512.000000pt" viewBox="0 0 512.000000 512.000000"
 preserveAspectRatio="xMidYMid meet">
<metadata>
Created by potrace 1.11, written by Peter Selinger 2001-2013
</metadata>
<g transform="translate(0.000000,512.000000) scale(0.100000,-0.100000)"
fill="#000000" stroke="none">
<path d="M747 5101 c-2 -10 0 -25 4 -34 5 -9 5 -26 0 -40 -6 -14 -9 -89 -7
-166 2 -88 -1 -141 -7 -141 -5 0 -4 -7 3 -15 6 -8 9 -19 5 -25 -4 -6 -9 -41
-11 -78 -3 -37 -6 -78 -8 -92 -2 -14 1 -28 6 -31 6 -4 5 -23 -3 -48 -10 -34
-10 -47 -1 -62 7 -11 10 -24 7 -29 -3 -5 -8 -57 -10 -115 -3 -79 -1 -104 8
-98 7 4 6 -1 -2 -10 -17 -22 -24 -133 -9 -160 7 -14 7 -17 -1 -13 -7 5 -9 -7
-5 -37 4 -25 2 -53 -5 -65 -8 -15 -8 -23 0 -28 8 -5 8 -8 0 -13 -7 -5 -8 -18
-3 -37 5 -16 6 -81 2 -144 -4 -74 -3 -120 3 -128 8 -10 7 -16 -2 -22 -10 -6
-13 -40 -11 -136 2 -71 2 -138 1 -149 -1 -11 -1 -50 -1 -87 0 -36 -4 -69 -10
-73 -6 -3 -8 -11 -5 -16 4 -5 6 -44 5 -86 0 -43 0 -109 0 -147 0 -45 -5 -73
-13 -79 -9 -7 -9 -10 1 -14 14 -5 17 -33 3 -33 -6 0 -8 -32 -7 -72 2 -40 -1
-79 -6 -85 -7 -9 -7 -13 1 -13 15 0 14 -43 -1 -58 -8 -8 -9 -15 -1 -23 7 -7 7
-26 1 -57 -5 -26 -8 -58 -7 -72 1 -14 -1 -32 -5 -40 -3 -9 -5 -46 -3 -84 3
-55 1 -65 -9 -52 -10 14 -11 12 -9 -14 1 -17 5 -33 9 -37 10 -10 7 -43 -4 -43
-5 0 -10 -5 -10 -11 0 -5 4 -7 10 -4 13 8 13 -17 1 -47 -5 -13 -12 -36 -16
-51 l-6 -28 -157 2 -157 2 -3 -154 c-2 -124 -5 -155 -17 -162 -9 -4 -13 -12
-10 -18 4 -5 -3 -9 -14 -9 -12 0 -21 3 -21 8 0 9 -168 13 -174 4 -2 -4 -7 -88
-10 -187 -4 -99 -9 -243 -12 -320 -3 -77 -7 -214 -7 -305 l-2 -165 90 -6 c60
-3 73 -6 38 -7 -29 -1 -53 -7 -55 -14 -3 -9 -12 -9 -37 2 -28 11 -34 11 -42
-1 -6 -10 -3 -15 10 -17 26 -4 36 -33 16 -44 -20 -12 -19 -28 2 -28 9 0 14 -2
11 -5 -3 -4 -17 -3 -32 1 -23 5 -24 8 -10 21 18 18 13 26 -10 17 -15 -6 -16
-30 -16 -240 l1 -234 987 0 c862 1 983 3 957 15 l-30 14 42 -1 c48 -2 64 13
19 18 -34 4 -61 24 -31 24 18 0 18 0 0 14 -11 8 -24 12 -29 8 -5 -3 -6 2 -3
12 6 15 3 17 -18 12 -21 -5 -25 -3 -26 16 -1 13 -1 26 0 31 0 4 -6 7 -14 7
-11 0 -15 12 -15 51 0 43 2 50 18 45 61 -19 142 -25 427 -37 177 -6 335 -10
353 -7 18 2 32 1 32 -4 0 -4 -4 -8 -9 -8 -4 0 -16 -33 -26 -73 -9 -39 -23 -87
-31 -104 l-13 -33 187 1 c114 0 179 4 167 9 -11 5 -15 10 -10 11 6 1 -8 5 -30
9 l-40 7 38 2 c20 0 37 2 38 4 0 1 3 35 5 75 4 55 2 72 -8 72 -9 0 -9 3 -2 8
6 4 14 39 17 77 9 115 -13 106 239 104 120 -1 221 -6 224 -11 6 -9 -6 -10 -76
-9 -37 0 -41 -2 -20 -9 21 -7 22 -8 5 -9 -18 -2 -18 -3 5 -16 l25 -14 -30 -1
-30 -2 40 -19 c22 -10 48 -19 58 -19 9 0 17 -6 17 -14 0 -19 -36 -45 -58 -41
-9 1 -11 0 -4 -2 20 -7 -5 -33 -32 -34 -21 0 -21 0 2 -11 31 -15 28 -28 -8
-28 -16 0 -30 -4 -30 -9 0 -15 29 -33 44 -28 10 4 13 1 9 -9 -3 -9 -19 -14
-45 -14 -31 0 -38 -3 -36 -17 2 -10 14 -20 27 -23 34 -7 31 -24 -5 -31 -16 -4
125 -7 313 -8 l343 -1 2 193 3 192 185 6 c635 21 790 22 791 8 1 -8 2 -39 3
-69 l1 -55 103 -3 102 -3 0 96 c0 79 -3 95 -15 95 -9 0 -93 -5 -188 -11 -95
-6 -353 -14 -575 -17 l-402 -7 0 23 c0 26 17 36 52 30 l23 -5 -25 -11 c-20
-10 0 -11 105 -7 165 6 257 15 270 26 12 12 52 11 60 -1 4 -6 -7 -10 -27 -10
-18 0 -40 -5 -48 -10 -10 -7 25 -10 109 -10 125 0 147 7 68 21 -25 5 -17 5 18
1 78 -9 445 -8 510 2 43 7 47 10 32 21 -38 27 -170 40 -432 41 -286 1 -464 -6
-425 -16 l25 -6 -30 -16 c-41 -21 -100 -34 -91 -19 5 7 -3 11 -23 11 -16 0
-37 3 -47 7 -13 5 -15 3 -9 -8 7 -10 1 -9 -18 3 -14 10 -30 18 -34 18 -4 0 -1
-5 7 -10 10 -6 2 -9 -28 -7 -42 1 -42 1 -42 39 0 35 2 38 24 32 13 -3 27 -1
30 5 9 14 374 15 410 1 18 -6 59 -6 124 1 53 6 163 13 245 16 128 3 147 2 147
-11 0 -13 -14 -16 -72 -18 -43 -1 -56 -3 -33 -5 100 -9 272 -32 288 -38 16 -7
17 107 17 2299 0 2211 -1 2306 -18 2306 -17 0 -19 -23 -30 -302 -7 -167 -19
-465 -27 -663 -8 -198 -21 -562 -30 -810 -8 -247 -18 -518 -21 -601 l-7 -151
-71 72 c-147 148 -376 245 -688 291 -141 20 -485 15 -618 -10 -105 -20 -233
-55 -324 -90 -73 -28 -111 -25 -55 5 54 29 28 22 -60 -16 -45 -19 -87 -32 -94
-30 -15 6 -142 -93 -177 -137 -18 -24 -20 -30 -8 -25 14 5 13 -4 -9 -48 -17
-34 -34 -55 -46 -57 -24 -4 -42 -51 -50 -130 -5 -56 -5 -58 42 -110 183 -211
450 -335 814 -378 l108 -13 -3 -66 c-2 -44 -7 -66 -15 -67 -7 -1 -22 -2 -34
-3 -13 -1 -18 -5 -13 -13 5 -8 2 -9 -9 -5 -10 3 -17 5 -17 4 1 -19 36 -111 55
-145 24 -43 25 -51 25 -228 0 -177 -1 -184 -21 -195 -12 -6 -19 -7 -16 -2 4 5
-9 16 -28 23 -19 8 -35 19 -35 26 0 17 -57 -41 -65 -66 -4 -12 -2 -20 5 -20 6
0 9 -4 5 -9 -5 -9 -79 -5 -158 8 -5 0 -5 6 -1 12 4 6 20 8 39 5 25 -5 37 -1
59 19 15 14 34 25 42 25 7 0 14 5 14 10 0 6 6 10 13 10 8 0 19 11 25 24 14 30
-9 66 -42 66 -13 0 -29 7 -37 16 -16 19 -105 65 -122 63 -46 -6 -59 8 -31 35
14 14 17 14 37 -5 29 -27 86 -54 95 -45 8 9 -24 29 -58 36 -14 3 -25 12 -25
20 0 11 -11 15 -38 15 -32 1 -45 8 -79 44 -35 36 -45 41 -67 35 -14 -3 -32 -7
-38 -7 -18 0 -17 -2 17 -41 l31 -34 -51 -17 c-53 -18 -59 -25 -35 -45 22 -18
19 -25 -20 -39 -35 -12 -37 -12 -170 24 -27 7 -69 16 -92 20 -24 4 -68 20 -99
35 -79 41 -136 48 -166 21 -65 -59 -83 -71 -104 -71 -12 0 -25 4 -29 10 -9 15
-34 0 -28 -18 5 -12 2 -14 -13 -8 -42 17 -214 26 -214 12 0 -6 -5 -4 -10 4 -8
12 -12 11 -30 -8 -13 -14 -32 -22 -53 -22 -29 1 -30 2 -14 14 10 8 15 20 11
30 -8 20 -28 21 -47 1 -10 -9 -17 -11 -19 -4 -2 7 -17 6 -46 -4 -23 -8 -42
-11 -42 -6 0 5 -4 9 -10 9 -5 0 -10 -7 -10 -16 0 -10 -5 -14 -16 -10 -8 3 -12
2 -9 -4 7 -11 -4 -13 -49 -10 -16 1 -33 -4 -37 -12 -8 -11 -10 -11 -18 1 -5 8
-11 9 -15 3 -3 -5 -34 -15 -68 -21 -35 -6 -78 -15 -96 -20 -24 -7 -39 -7 -53
2 -16 10 -21 9 -29 -3 -8 -13 -11 -12 -24 5 -18 24 -12 35 18 35 13 0 29 7 36
15 9 11 8 18 -9 36 -11 12 -29 41 -41 65 -19 42 -28 49 -58 45 -8 -1 -20 3
-28 10 -12 10 -12 13 3 25 17 12 16 13 -7 22 l-25 9 24 8 23 7 -26 24 c-14 14
-26 33 -26 42 0 9 -6 25 -14 34 -13 17 -12 35 14 263 5 50 11 122 13 160 3 39
2 54 0 35 -2 -19 -9 -39 -14 -44 -5 -6 -9 -23 -9 -38 0 -15 -4 -28 -10 -28 -5
0 -9 -42 -9 -101 0 -99 -13 -162 -47 -228 -8 -14 -14 -31 -14 -38 0 -6 -3 -13
-8 -15 -10 -4 -42 -75 -42 -94 0 -13 -6 -12 -32 6 -115 76 -348 155 -486 164
-73 5 -74 5 -25 -5 54 -11 79 -37 43 -46 -20 -5 -28 -23 -10 -23 18 0 10 -18
-10 -23 -11 -3 -20 -12 -20 -20 0 -10 7 -13 20 -10 29 8 25 -12 -5 -25 -25
-11 -34 -32 -15 -32 6 0 10 -9 10 -20 0 -11 -6 -20 -13 -20 -14 0 -16 -27 -4
-47 5 -8 -1 -15 -18 -19 -14 -3 -25 -10 -25 -16 0 -5 4 -7 9 -4 5 4 7 -3 4
-15 -3 -11 -12 -23 -20 -26 -50 -19 -123 -133 -123 -192 0 -17 -4 -32 -10 -36
-13 -8 22 -43 38 -37 23 8 12 -13 -18 -33 -33 -22 -41 -48 -12 -38 14 5 14 3
-3 -14 l-20 -20 -9 61 c-10 65 14 420 36 533 6 32 10 67 10 78 -1 11 7 49 17
85 11 36 21 76 24 90 20 99 51 222 80 320 39 126 38 112 52 720 3 124 7 313
10 420 3 107 7 308 10 445 3 138 7 342 10 455 3 113 7 361 11 553 l5 347 -29
0 c-21 0 -31 -6 -35 -19z m2323 -2394 c0 -2 -17 -19 -37 -38 l-38 -34 34 38
c33 34 41 42 41 34z m-71 -46 c-12 -17 -18 -34 -14 -42 5 -7 4 -10 -2 -6 -5 3
-20 -16 -33 -42 -15 -33 -28 -48 -39 -46 -9 2 -22 4 -28 4 -29 2 -1 73 50 128
16 18 23 20 34 11 11 -9 18 -7 31 5 25 25 25 20 1 -12z m1009 -43 c-3 -8 -29
-14 -71 -16 -73 -3 -66 4 -82 -79 -3 -16 -8 -36 -11 -45 -5 -16 2 -18 60 -18
63 0 92 -12 60 -24 -9 -3 -41 -6 -71 -6 -77 0 -84 12 -67 104 20 102 13 96
105 96 60 0 80 -3 77 -12z m-248 -2 c0 -14 -31 -150 -36 -158 -4 -7 -10 -5
-15 3 -7 14 11 125 25 147 7 11 26 17 26 8z m519 -9 c16 -20 -11 -154 -35
-172 -27 -21 -144 -20 -144 0 0 12 14 15 69 15 l68 0 7 56 c3 31 10 64 15 73
8 14 2 16 -59 13 -54 -3 -68 0 -73 12 -5 14 4 16 67 16 49 0 77 -4 85 -13z
m249 -9 c-3 -8 -28 -14 -66 -16 -58 -3 -62 -5 -68 -30 -3 -15 -11 -45 -18 -67
l-12 -41 64 -2 c86 -2 93 -12 75 -106 -15 -82 -31 -99 -83 -92 -19 3 -49 5
-66 6 -46 0 -47 10 -18 148 2 12 9 22 16 22 11 0 5 -89 -8 -124 -5 -13 3 -16
48 -16 30 0 59 -5 65 -11 7 -7 12 8 17 52 4 35 12 71 17 80 6 12 5 20 -3 25
-7 4 -8 3 -4 -4 5 -9 -10 -12 -54 -12 -54 0 -62 2 -71 24 -13 29 5 156 24 168
7 4 43 8 80 8 51 0 68 -3 65 -12z m269 -15 c3 -8 1 -44 -5 -79 -15 -88 -36
-106 -113 -98 l-56 6 -8 -59 c-4 -32 -11 -65 -15 -73 -7 -13 2 -15 58 -15 43
0 67 -4 69 -12 4 -10 -14 -13 -65 -13 -44 0 -73 5 -80 13 -14 17 11 143 34
168 15 17 29 20 79 18 l60 -3 7 53 c5 29 12 60 17 69 8 15 2 17 -57 17 -51 0
-67 3 -70 15 -4 22 137 15 145 -7z m-1077 -163 c0 -20 -18 -114 -26 -140 -5
-13 -7 -13 -15 1 -8 15 2 105 16 147 7 19 25 14 25 -8z m266 -22 c-4 -18 -9
-51 -13 -73 -9 -60 -17 -65 -99 -65 -70 0 -102 11 -68 24 25 9 119 7 129 -3 6
-6 11 9 12 42 2 59 17 107 34 107 8 0 9 -11 5 -32z m105 -44 c-6 -32 -11 -61
-11 -64 0 -4 25 -8 56 -9 60 -2 74 -6 74 -22 0 -5 -31 -9 -69 -9 -91 0 -97 8
-81 97 15 79 19 88 32 75 6 -6 6 -30 -1 -68z m-78 -79 c1 -5 -6 -11 -15 -13
-11 -2 -18 3 -18 13 0 17 30 18 33 0z m950 -227 c-8 -249 -19 -502 -21 -505
-7 -11 -69 0 -90 16 -15 10 -46 21 -69 25 -41 6 -42 5 -40 -21 1 -20 -3 -28
-17 -31 -16 -4 -18 0 -13 28 l7 32 -68 -7 c-48 -5 -72 -12 -84 -26 -31 -36
-227 -21 -252 20 -4 6 -14 50 -22 98 -25 152 -11 137 -120 129 l-94 -7 0 54 0
54 103 6 c281 18 576 124 721 259 33 31 62 57 63 58 1 0 -1 -82 -4 -182z
m-4296 140 c-3 -8 -6 -5 -6 6 -1 11 2 17 5 13 3 -3 4 -12 1 -19z m2913 -19 c0
-7 -11 -8 -30 -4 -38 8 -40 -10 -2 -20 l27 -7 -24 -19 c-25 -20 -67 -25 -91
-9 -12 8 -12 10 3 16 9 3 24 1 31 -5 9 -8 16 -8 20 -2 4 5 -3 12 -14 16 -22 7
-27 31 -7 38 23 10 87 7 87 -4z m113 4 c13 -12 -26 -43 -55 -43 -16 0 -31 -6
-34 -15 -6 -15 -34 -21 -34 -7 0 4 9 22 20 40 17 27 26 32 58 32 21 0 42 -3
45 -7z m102 -3 c4 -7 13 -7 24 0 11 5 30 6 47 0 l29 -8 -27 -1 c-31 -1 -38
-17 -10 -24 10 -3 6 -5 -10 -6 -31 -1 -38 -17 -10 -24 9 -3 -3 -5 -27 -6 l-43
-1 16 25 c22 33 21 35 -16 34 -24 -1 -27 -3 -10 -6 29 -6 18 -23 -14 -23 -15
0 -23 -4 -19 -11 4 -6 13 -8 21 -5 8 3 14 1 14 -4 0 -6 -18 -10 -40 -10 -22 0
-40 3 -40 6 0 4 9 22 21 40 17 28 27 34 54 34 19 0 37 -5 40 -10z m205 -18 c0
-34 -34 -53 -84 -50 l-46 3 20 33 c18 28 25 32 65 32 37 0 45 -3 45 -18z m130
7 c0 -7 -10 -9 -26 -5 -17 5 -23 3 -19 -4 3 -5 13 -10 21 -10 17 0 18 -14 2
-28 -22 -17 -94 -19 -83 -2 3 6 17 7 31 4 14 -4 24 -2 24 5 0 6 -7 11 -15 11
-18 0 -20 26 -2 33 23 10 67 7 67 -4z m105 1 c-3 -5 -12 -10 -18 -10 -7 0 -25
-14 -40 -31 -32 -36 -48 -32 -23 6 15 22 15 25 1 25 -9 0 -13 5 -10 10 3 6 26
10 51 10 28 0 43 -4 39 -10z m58 -27 c-7 -48 -8 -49 -38 -33 -20 11 -27 11
-40 0 -8 -7 -18 -10 -21 -7 -9 8 69 76 88 77 14 0 16 -7 11 -37z m107 22 c-3
-5 -13 -9 -24 -7 -20 2 -46 -14 -46 -30 0 -6 13 -8 33 -4 30 5 31 5 13 -9 -42
-32 -96 -6 -65 31 24 29 102 46 89 19z m56 0 c-4 -13 -2 -13 14 -5 10 5 27 10
37 9 15 0 14 -2 -4 -11 -17 -8 -21 -17 -17 -34 5 -18 2 -24 -10 -24 -9 0 -19
7 -23 15 -5 14 -7 14 -24 -1 -32 -28 -40 -11 -14 29 25 37 53 51 41 22z m149
-5 c-3 -6 -18 -8 -33 -4 -25 5 -25 4 -7 -7 29 -17 29 -17 15 -34 -14 -17 -80
-21 -80 -4 0 7 11 8 30 4 34 -8 42 10 8 18 -18 5 -19 8 -8 21 14 17 85 23 75
6z m-1172 -7 c-7 -2 -21 -2 -30 0 -10 3 -4 5 12 5 17 0 24 -2 18 -5z m575
-289 c-2 -38 -7 -48 -25 -55 -22 -8 -23 -6 -23 46 0 52 1 55 26 55 24 0 25 -3
22 -46z m-3638 -33 c0 -5 11 -12 25 -15 24 -6 73 -46 58 -46 -5 0 0 -5 10 -11
9 -5 17 -19 17 -30 0 -11 -4 -18 -10 -14 -5 3 -16 -8 -25 -25 -18 -35 -17 -35
-54 -15 -19 9 -30 25 -35 46 -9 48 -7 119 4 119 6 0 10 -4 10 -9z m3594 -316
c-4 -8 -8 -15 -10 -15 -2 0 -4 7 -4 15 0 8 4 15 10 15 5 0 7 -7 4 -15z m978 2
c2 -7 2 -48 0 -91 l-4 -79 -326 6 c-180 4 -403 7 -495 7 l-168 0 3 48 3 47 40
0 c22 0 51 -4 65 -8 17 -6 21 -5 11 1 -9 7 10 8 55 5 38 -3 71 -9 74 -13 7
-12 49 -16 49 -6 -1 16 35 30 69 27 18 -1 32 2 32 8 0 7 -23 11 -57 11 -122 0
-313 13 -313 22 0 5 10 12 21 16 36 14 937 12 941 -1z m-3947 -87 c3 -5 -3
-10 -14 -10 -12 0 -21 -4 -21 -10 0 -5 5 -10 11 -10 5 0 7 -5 4 -10 -4 -6 -15
-8 -24 -5 -10 3 -29 1 -42 -4 -13 -5 -20 -10 -16 -10 4 -1 2 -7 -5 -15 -13
-14 -38 -10 -50 8 -9 13 29 39 45 30 7 -4 8 -3 4 2 -5 5 13 16 40 25 59 21 60
21 68 9z m2244 -52 c0 -13 -3 -17 -6 -10 -2 6 -12 12 -21 13 -14 0 -13 2 3 9
11 5 21 9 23 9 1 1 2 -9 1 -21z m-1694 -6 c-3 -3 -11 0 -18 7 -9 10 -8 11 6 5
10 -3 15 -9 12 -12z m-132 1 c-7 -2 -19 -2 -25 0 -7 3 -2 5 12 5 14 0 19 -2
13 -5z m67 -10 c0 -5 -11 -9 -25 -9 -14 -1 -25 2 -25 7 0 5 11 9 25 9 14 0 25
-3 25 -7z m880 -3 c0 -5 -5 -10 -11 -10 -5 0 -7 5 -4 10 3 6 8 10 11 10 2 0 4
-4 4 -10z m998 -58 c2 -34 -1 -62 -6 -62 -5 0 -21 9 -36 21 -46 36 -29 115 24
106 11 -2 16 -18 18 -65z m-130 -27 c-2 -1 -13 -6 -25 -9 -20 -7 -23 -4 -23
22 0 20 7 32 23 39 20 9 22 7 25 -19 2 -17 2 -31 0 -33z m-821 -45 c24 -10 47
-29 53 -42 5 -13 23 -90 40 -173 17 -82 50 -237 74 -343 29 -130 40 -195 32
-197 -6 -2 -39 -9 -73 -15 -34 -6 -88 -20 -120 -31 -109 -38 -178 -50 -328
-59 -82 -5 -171 -12 -197 -16 -45 -6 -48 -5 -48 16 0 21 -3 22 -52 15 -29 -4
-78 -15 -108 -24 -68 -19 -97 -18 -560 19 -365 30 -493 48 -348 49 40 1 92 9
125 21 116 39 142 41 336 25 100 -9 263 -26 362 -40 268 -36 249 -36 255 5 3
19 11 34 17 33 17 -4 29 157 12 167 -13 9 -14 120 -1 130 4 3 8 90 9 193 1
205 8 239 51 256 29 12 213 27 347 29 60 1 91 -3 122 -18z m2519 -312 c-4
-134 -11 -246 -14 -250 -7 -6 -228 -11 -442 -9 l-95 1 -2 33 c-1 17 -5 126 -8
241 -4 163 -2 211 7 218 7 4 136 8 287 8 l274 0 -7 -242z m-1410 140 c-3 -13
-5 -27 -5 -32 -1 -5 -10 -1 -21 9 -19 17 -19 19 -2 31 25 19 32 17 28 -8z
m719 -6 c7 -20 4 -368 -4 -381 -3 -5 -70 -11 -148 -14 l-143 -6 1 84 c0 65 4
87 16 93 13 8 13 12 -1 41 -12 23 -16 52 -14 109 3 77 3 77 33 83 17 3 80 6
142 7 96 1 112 -1 118 -16z m-1053 -30 c15 -24 15 -42 7 -137 -13 -154 -13
-155 -50 -155 -27 0 -30 -2 -19 -15 7 -9 10 -18 6 -22 -3 -4 -12 1 -19 10 -8
12 -43 23 -102 34 -98 17 -106 20 -86 32 7 4 19 50 27 102 23 146 20 137 62
144 29 5 100 20 152 34 3 0 13 -12 22 -27z m337 -103 c39 -8 64 -8 98 0 25 7
47 10 49 9 1 -2 -11 -26 -28 -53 -17 -28 -42 -77 -56 -110 -13 -33 -25 -61
-26 -62 -1 -1 -20 4 -41 12 -22 8 -75 14 -117 15 -42 0 -79 4 -83 9 -3 5 -2
48 1 94 7 83 7 85 35 91 15 3 33 15 39 26 l11 21 33 -20 c18 -11 56 -26 85
-32z m212 -45 c-1 -38 -7 -70 -12 -72 -12 -5 -12 -42 1 -42 6 0 10 -9 10 -19
0 -20 -8 -23 -97 -36 -31 -5 -43 -3 -43 5 0 7 20 56 45 108 73 154 100 170 96
56z m-2482 -109 c-12 -19 -25 -35 -31 -35 -5 0 -16 -6 -23 -14 -8 -8 -39 -22
-69 -31 -55 -17 -79 -40 -46 -42 10 -1 21 5 24 13 5 13 10 13 36 -1 22 -11 35
-13 49 -5 14 7 20 7 23 -1 5 -15 123 -39 238 -48 l95 -8 -90 -2 c-49 -2 -112
-4 -140 -6 -27 -2 -137 -6 -243 -9 -175 -6 -193 -5 -199 11 -9 22 13 172 28
189 8 10 47 14 137 17 70 1 150 4 179 5 l52 2 -20 -35z m1621 -1 c0 -2 -15 -4
-32 -3 -27 0 -29 2 -13 8 18 8 45 4 45 -5z m446 -72 c-10 -2 -22 0 -28 6 -6 6
0 7 19 4 21 -5 23 -7 9 -10z m89 8 c3 -5 1 -10 -4 -10 -6 0 -11 5 -11 10 0 6
2 10 4 10 3 0 8 -4 11 -10z m325 -16 c0 -11 -5 -14 -16 -10 -9 3 -30 6 -47 7
-31 1 -31 1 -7 9 43 14 70 11 70 -6z m-850 -24 c0 -27 -3 -30 -30 -30 -19 0
-30 5 -30 14 0 30 13 46 36 46 20 0 24 -5 24 -30z m-1004 -46 c-3 -9 -6 -40
-6 -70 0 -35 -4 -53 -10 -49 -6 3 -8 16 -4 29 5 21 3 22 -63 19 -48 -2 -61 0
-43 6 14 5 44 9 68 10 41 1 42 2 42 36 0 19 5 35 11 35 6 0 8 -7 5 -16z m1537
-46 c18 -1 5 -4 -28 -7 -76 -8 -131 0 -70 10 22 3 46 4 53 3 8 -2 28 -5 45 -6z
m-616 -4 c-3 -3 -12 -4 -19 -1 -8 3 -5 6 6 6 11 1 17 -2 13 -5z m160 0 c-3 -3
-39 -8 -79 -10 -49 -2 -68 0 -58 6 16 10 147 14 137 4z m298 -9 l40 -16 -35 6
c-19 3 -46 6 -60 5 -56 -3 -108 -3 -155 -1 -41 3 -46 4 -25 11 44 14 192 11
235 -5z m243 8 c-10 -2 -26 -2 -35 0 -10 3 -2 5 17 5 19 0 27 -2 18 -5z m232
-1 c0 -4 -33 -6 -72 -4 -114 5 -122 9 -20 11 50 0 92 -3 92 -7z m-2465 -17 c6
-2 -20 -4 -56 -4 -76 -1 -91 -9 -52 -28 26 -12 26 -12 -17 -7 -45 6 -85 22
-77 30 16 16 163 22 202 9z m83 -12 c-10 -2 -26 -2 -35 0 -10 3 -2 5 17 5 19
0 27 -2 18 -5z m92 -3 c-36 -12 -62 -12 -55 0 3 6 23 10 43 9 33 -1 34 -2 12
-9z m208 3 c-21 -2 -55 -2 -75 0 -21 2 -4 4 37 4 41 0 58 -2 38 -4z m-1531
-20 c-12 -3 -16 -10 -13 -20 4 -9 1 -13 -6 -11 -7 3 -14 12 -16 21 -3 13 3 17
25 16 18 -1 22 -3 10 -6z m-2 -62 c-5 -18 0 -19 76 -20 45 0 84 -3 87 -6 3 -3
-33 -5 -79 -5 -89 0 -118 11 -96 36 16 18 19 17 12 -5z m3613 1 c3 -9 -21 -12
-79 -12 -91 0 -98 8 -17 20 65 9 91 7 96 -8z m-1102 -19 c3 -16 7 -33 9 -40 2
-6 23 -14 47 -18 64 -11 69 -19 13 -26 -49 -5 -49 -6 -17 -14 44 -10 51 -25 7
-15 -19 4 -35 4 -35 0 0 -19 13 -39 21 -34 15 9 10 -13 -6 -26 -13 -11 -87
-11 -373 -3 -330 9 -361 11 -404 31 -27 11 -48 25 -48 30 0 13 196 41 246 35
53 -6 207 21 303 53 65 22 177 49 218 53 7 0 15 -11 19 -26z m1081 -9 c-3 -3
-12 -4 -19 -1 -8 3 -5 6 6 6 11 1 17 -2 13 -5z m11 -128 c-2 -1 -41 1 -88 4
l-85 7 85 1 c59 2 80 5 70 12 -8 5 -35 10 -60 11 l-45 2 45 7 c43 7 42 7 -22
8 -38 1 -68 6 -68 11 0 7 55 18 127 25 13 2 26 6 30 10 5 4 9 -16 11 -44 2
-29 2 -53 0 -54z m-125 -12 c72 -8 64 -18 -28 -32 -38 -6 -85 -14 -104 -18
l-33 -7 15 30 c18 33 45 39 150 27z m-290 -221 c-7 -2 -19 -2 -25 0 -7 3 -2 5
12 5 14 0 19 -2 13 -5z"/>
<path d="M3630 2150 c0 -5 4 -10 9 -10 6 0 13 5 16 10 3 6 -1 10 -9 10 -9 0
-16 -4 -16 -10z"/>
<path d="M3932 2148 c-14 -14 -16 -38 -4 -38 14 0 43 36 35 43 -9 10 -17 9
-31 -5z"/>
<path d="M4245 2130 c-3 -5 -2 -10 4 -10 5 0 13 5 16 10 3 6 2 10 -4 10 -5 0
-13 -4 -16 -10z"/>
<path d="M1913 795 c0 -22 2 -30 4 -17 2 12 2 30 0 40 -3 9 -5 -1 -4 -23z"/>
<path d="M2845 657 c-4 -10 -5 -21 -1 -24 10 -10 18 4 13 24 -4 17 -4 17 -12
0z"/>
<path d="M1198 5073 c0 -27 -2 -69 -3 -95 -1 -26 -5 -213 -9 -415 -4 -202 -9
-415 -11 -473 -2 -58 -7 -213 -10 -345 -3 -132 -10 -386 -16 -564 -5 -178 -7
-326 -4 -329 3 -3 14 -1 25 4 19 9 21 20 25 169 6 227 14 562 20 830 3 127 7
320 10 430 3 110 8 343 11 518 l6 317 -21 0 c-18 0 -21 -6 -23 -47z"/>
<path d="M1316 5048 c-3 -40 -8 -201 -11 -358 -3 -157 -7 -337 -10 -400 -2
-63 -7 -227 -10 -365 -3 -137 -7 -322 -10 -410 -17 -572 -17 -595 -5 -595 6 0
19 4 29 10 20 10 22 63 36 725 3 138 8 331 10 430 3 99 7 308 10 465 3 157 8
349 10 428 l6 142 -25 0 c-23 0 -25 -4 -30 -72z"/>
<path d="M1440 5108 c0 -7 -2 -69 -5 -138 -3 -69 -9 -294 -15 -500 -5 -206
-12 -458 -15 -560 -3 -102 -7 -264 -10 -360 -2 -96 -7 -264 -11 -372 -6 -193
-6 -198 14 -198 33 0 44 26 47 108 5 128 15 531 20 812 5 268 10 466 21 953
l7 267 -27 0 c-14 0 -26 -6 -26 -12z"/>
<path d="M1552 4698 c-7 -233 -15 -486 -17 -563 -8 -228 -15 -476 -20 -715 -3
-124 -8 -262 -11 -307 -5 -76 -4 -83 13 -83 51 0 50 -6 62 475 6 248 13 520
16 605 2 85 8 347 11 583 l7 427 -25 0 -24 0 -12 -422z"/>
<path d="M1686 4988 c-3 -73 -11 -308 -16 -523 -5 -214 -12 -448 -15 -520 -2
-71 -7 -227 -10 -345 -3 -118 -8 -284 -11 -367 -6 -164 -3 -171 43 -138 20 14
21 23 23 232 1 120 3 229 4 243 2 14 6 194 10 400 4 206 9 438 11 515 2 77 7
251 11 388 l6 247 -25 0 -25 0 -6 -132z"/>
<path d="M1810 5028 c-1 -51 -3 -113 -5 -138 -1 -25 -6 -164 -9 -310 -4 -146
-8 -305 -11 -355 -3 -49 -9 -286 -15 -525 -6 -239 -12 -468 -14 -507 -5 -78 1
-87 40 -59 22 17 21 9 23 139 l2 102 21 -40 c12 -22 23 -53 25 -68 2 -16 7
-36 12 -45 12 -23 -2 -55 -32 -79 -14 -11 -32 -39 -40 -63 -8 -24 -19 -46 -25
-48 -14 -4 -23 40 -10 55 12 15 0 17 -21 4 -12 -8 -10 -19 11 -68 20 -44 29
-90 39 -191 8 -93 9 -136 2 -140 -7 -5 -3 -24 12 -57 56 -121 95 -214 111
-263 15 -49 15 -56 1 -90 -9 -20 -19 -61 -23 -91 -3 -30 -17 -86 -31 -125 -13
-39 -26 -96 -29 -128 -5 -52 -4 -58 20 -73 47 -31 94 -8 130 63 21 42 36 41
36 -3 0 -19 7 -55 16 -81 12 -35 13 -53 5 -68 -29 -60 -19 -167 19 -201 11
-10 24 -34 31 -54 13 -42 36 -71 56 -71 17 0 17 0 -7 51 -27 60 -25 69 10 69
25 0 32 -6 45 -37 9 -20 13 -43 10 -50 -9 -25 24 -25 72 1 26 14 84 37 128 50
151 46 157 47 219 31 71 -19 67 -19 57 7 -5 13 -11 64 -15 113 -7 90 -7 91 18
105 28 14 32 25 16 35 -5 3 -10 16 -10 28 0 17 2 19 10 7 14 -23 25 -3 12 24
-6 13 -8 27 -4 30 3 4 6 21 6 38 1 30 4 33 56 48 47 14 55 19 55 40 0 22 -5
25 -37 28 -49 4 -64 23 -43 55 14 22 14 29 2 59 -8 19 -28 45 -44 59 l-30 25
3 213 3 213 73 64 c40 35 82 64 93 64 11 0 27 5 35 10 13 8 12 10 -2 10 -27 0
-17 34 22 70 25 24 44 32 74 33 36 2 41 -1 38 -18 -2 -11 -11 -25 -20 -32 -57
-40 -59 -43 -25 -32 17 6 37 17 44 25 6 8 19 14 29 14 19 0 77 27 85 39 12 20
-28 275 -65 416 -6 25 1 47 14 42 20 -8 44 23 81 102 12 24 16 62 16 135 -1
96 -5 130 -30 273 -18 99 -87 235 -181 353 -16 21 -30 42 -30 48 0 5 -7 15
-15 22 -9 7 -13 21 -10 31 4 12 1 19 -7 19 -10 0 -10 2 1 9 9 6 10 11 2 15 -6
4 -9 20 -6 37 4 19 1 29 -7 29 -8 0 -14 -18 -16 -48 -2 -26 -7 -51 -12 -55
-13 -14 -48 2 -57 26 -9 25 -7 330 2 570 6 136 5 157 -8 157 -19 0 -25 -63
-32 -365 -8 -337 -11 -352 -64 -338 -20 5 -20 10 -16 192 10 473 10 506 -7
509 -20 4 -26 -73 -34 -402 -3 -138 -7 -261 -10 -273 -4 -19 -11 -23 -39 -23
l-35 0 5 238 c3 130 7 281 10 336 4 105 0 126 -20 126 -10 0 -14 -42 -19 -172
-3 -95 -9 -243 -12 -329 -6 -159 -14 -226 -27 -221 -4 1 -17 2 -29 2 l-21 0 6
360 c6 346 6 360 -12 360 -23 0 -28 -57 -36 -400 -7 -296 -9 -316 -38 -324
-12 -3 -26 -1 -30 3 -9 9 -10 235 -1 539 5 178 5 182 -15 182 -19 0 -36 -32
-30 -56 4 -13 -10 -463 -17 -561 -5 -61 -10 -83 -20 -83 -8 0 -14 -5 -14 -10
0 -7 -7 -7 -20 0 -23 12 -22 -8 -4 548 l5 162 -24 0 -24 0 -7 -242 c-9 -310
-15 -455 -22 -495 -5 -33 -36 -59 -55 -47 -10 6 -10 39 7 607 l5 177 -26 0
-25 0 -1 -137 c-1 -76 -2 -151 -4 -168 -1 -16 -5 -151 -9 -300 -7 -259 -9
-272 -33 -322 -13 -29 -29 -53 -35 -53 -10 0 -6 437 8 818 l6 162 -25 0 c-25
0 -25 -2 -31 -92 -3 -51 -8 -192 -11 -313 -15 -607 -26 -893 -37 -925 -13 -41
-17 -175 -5 -207 7 -19 4 -25 -17 -33 -19 -7 -26 -17 -26 -37 0 -16 -5 -35
-11 -43 -7 -11 -9 2 -5 45 3 33 8 186 11 340 3 154 7 350 10 435 3 85 7 307
11 493 l6 337 -26 0 -26 0 0 -92z m203 -1768 c-5 -30 -14 -55 -22 -58 -11 -4
-12 6 -6 49 7 51 26 92 32 72 2 -5 0 -33 -4 -63z m1072 -89 c9 -67 15 -139 13
-159 l-3 -37 -74 -3 c-64 -3 -73 -1 -67 13 3 9 13 43 21 76 9 33 25 74 35 92
11 18 20 42 20 55 0 13 5 44 11 69 16 63 25 42 44 -106z m-1110 -3 c10 -32 5
-201 -5 -212 -6 -6 -13 0 -19 15 -9 23 -9 23 -16 4 -4 -11 -12 -31 -17 -45
-11 -25 -12 -24 -20 15 -32 142 -14 245 42 245 20 0 30 -6 35 -22z m-17 -434
c-4 -3 -12 5 -18 18 -12 22 -12 22 6 6 10 -10 15 -20 12 -24z m602 -219 c0
-30 -4 -55 -9 -55 -5 0 -18 -24 -30 -53 l-22 -53 -107 -13 c-59 -7 -138 -14
-177 -15 -38 -1 -77 -5 -86 -10 -28 -12 -57 25 -76 96 -9 37 -15 69 -12 72 2
3 21 1 42 -3 25 -6 35 -6 30 2 -4 7 0 8 13 3 35 -14 105 -24 126 -18 14 3 26
-2 35 -13 13 -18 16 -18 79 15 36 18 72 43 80 54 14 21 63 44 97 45 14 1 17
-8 17 -54z m-16 -139 c-3 -15 -8 -25 -11 -23 -2 3 -1 17 3 31 3 15 8 25 11 23
2 -3 1 -17 -3 -31z m-583 -169 c-8 -8 -11 -7 -11 4 0 9 3 19 7 23 4 4 9 2 11
-4 3 -7 -1 -17 -7 -23z m284 -76 c-3 -12 -11 -21 -17 -21 -7 0 -7 5 1 14 6 7
8 22 5 32 -5 15 -4 16 6 8 7 -7 9 -21 5 -33z m-282 -14 c7 4 6 -1 -2 -10 -13
-16 -22 -97 -11 -97 14 0 2 -78 -15 -102 -23 -31 -52 -39 -39 -10 4 9 7 31 6
47 -1 17 -2 45 -3 64 0 20 7 45 20 62 12 15 22 41 22 56 2 24 2 25 6 5 3 -14
9 -20 16 -15z m472 12 c16 -6 14 -8 -12 -8 -17 -1 -37 -3 -45 -6 -7 -3 -19 4
-26 15 -12 20 -11 21 25 14 21 -4 47 -10 58 -15z m-239 -38 c0 -23 -30 -21
-34 2 -2 11 3 17 15 17 12 0 19 -7 19 -19z m614 -51 c0 -9 -35 -20 -109 -35
-22 -5 -31 -4 -27 3 4 6 27 14 51 18 25 3 48 10 51 15 7 12 34 11 34 -1z
m-360 -30 c12 -8 9 -10 -13 -10 -16 0 -26 4 -22 10 8 12 16 12 35 0z m-60 -4
c0 -3 -4 -8 -10 -11 -5 -3 -10 -1 -10 4 0 6 5 11 10 11 6 0 10 -2 10 -4z m130
-26 c0 -5 -9 -10 -19 -10 -11 0 -26 -3 -35 -6 -9 -3 -16 -1 -16 4 0 9 20 17
58 21 6 0 12 -3 12 -9z m-300 -14 c0 -3 -4 -8 -10 -11 -5 -3 -10 -1 -10 4 0 6
5 11 10 11 6 0 10 -2 10 -4z m-124 -136 c4 -32 2 -30 -15 15 -11 28 -19 59
-19 70 0 30 29 -43 34 -85z m204 60 c0 -5 -10 -10 -22 -10 -18 0 -20 -2 -8 -9
8 -6 17 -8 21 -5 4 2 10 -3 13 -12 4 -11 14 -15 31 -12 19 4 25 1 25 -13 0
-14 -7 -19 -25 -19 -28 0 -32 -12 -10 -30 11 -9 12 -17 5 -30 -7 -13 -6 -21 2
-26 7 -5 3 -10 -12 -16 -28 -10 -32 -5 -60 78 -25 75 -20 114 16 114 13 0 24
-4 24 -10z m180 -40 c11 -7 7 -10 -17 -10 -17 0 -35 -5 -39 -11 -6 -11 -23 6
-24 24 0 10 62 8 80 -3z m-385 -110 c3 -5 -1 -10 -9 -10 -8 0 -16 -8 -19 -17
-4 -17 -4 -17 -12 1 -11 25 26 49 40 26z m44 -45 c1 -17 -1 -17 -9 -5 -5 8 -9
26 -9 40 0 23 1 23 9 5 5 -11 9 -29 9 -40z m-53 -62 l1 -48 -14 39 c-12 37
-10 47 12 56 1 0 1 -21 1 -47z"/>
<path d="M962 4730 c0 -19 2 -27 5 -17 2 9 2 25 0 35 -3 9 -5 1 -5 -18z"/>
<path d="M2890 4610 c0 -5 5 -10 11 -10 5 0 7 5 4 10 -3 6 -8 10 -11 10 -2 0
-4 -4 -4 -10z"/>
<path d="M2890 4528 c0 -28 2 -49 4 -47 8 9 13 99 5 99 -5 0 -9 -23 -9 -52z"/>
<path d="M950 4521 c0 -5 5 -13 10 -16 6 -3 10 -2 10 4 0 5 -4 13 -10 16 -5 3
-10 2 -10 -4z"/>
<path d="M951 4474 c0 -11 3 -14 6 -6 3 7 2 16 -1 19 -3 4 -6 -2 -5 -13z"/>
<path d="M952 4420 c0 -14 2 -19 5 -12 2 6 2 18 0 25 -3 6 -5 1 -5 -13z"/>
<path d="M952 4370 c0 -14 2 -19 5 -12 2 6 2 18 0 25 -3 6 -5 1 -5 -13z"/>
<path d="M952 4310 c0 -19 2 -27 5 -17 2 9 2 25 0 35 -3 9 -5 1 -5 -18z"/>
<path d="M945 4241 c-3 -5 -1 -12 5 -16 5 -3 10 1 10 9 0 18 -6 21 -15 7z"/>
<path d="M1071 4194 c0 -11 3 -14 6 -6 3 7 2 16 -1 19 -3 4 -6 -2 -5 -13z"/>
<path d="M947 4163 c-4 -3 -6 -79 -6 -167 1 -89 3 -152 5 -141 3 17 11 315 8
315 0 0 -4 -3 -7 -7z"/>
<path d="M1071 4134 c0 -11 3 -14 6 -6 3 7 2 16 -1 19 -3 4 -6 -2 -5 -13z"/>
<path d="M1071 4024 c0 -11 3 -14 6 -6 3 7 2 16 -1 19 -3 4 -6 -2 -5 -13z"/>
<path d="M930 3775 c0 -8 5 -15 10 -15 6 0 10 7 10 15 0 8 -4 15 -10 15 -5 0
-10 -7 -10 -15z"/>
<path d="M990 3741 c0 -11 5 -23 10 -26 6 -4 10 5 10 19 0 14 -4 26 -10 26 -5
0 -10 -9 -10 -19z"/>
<path d="M929 3668 c-5 -266 -16 -683 -24 -908 -4 -103 -3 -121 7 -105 8 12
13 62 14 130 3 227 16 660 19 664 2 1 0 14 -5 26 -6 16 -5 25 3 29 9 3 8 5 -1
5 -7 1 -11 4 -9 9 11 16 17 232 7 232 -6 0 -11 -34 -11 -82z"/>
<path d="M990 3615 c0 -8 2 -15 4 -15 2 0 6 7 10 15 3 8 1 15 -4 15 -6 0 -10
-7 -10 -15z"/>
<path d="M1062 3600 c0 -14 2 -19 5 -12 2 6 2 18 0 25 -3 6 -5 1 -5 -13z"/>
<path d="M989 3507 c-2 -37 -1 -67 2 -67 10 0 15 71 8 105 -4 22 -7 11 -10
-38z"/>
<path d="M1051 3494 c0 -11 3 -14 6 -6 3 7 2 16 -1 19 -3 4 -6 -2 -5 -13z"/>
<path d="M988 3395 c-6 -30 -3 -43 8 -33 3 4 4 19 2 35 l-3 28 -7 -30z"/>
<path d="M980 3305 c0 -8 5 -15 10 -15 6 0 10 7 10 15 0 8 -4 15 -10 15 -5 0
-10 -7 -10 -15z"/>
<path d="M987 3263 c-4 -3 -7 -56 -7 -116 0 -61 2 -108 5 -106 6 6 18 229 12
229 -2 0 -7 -3 -10 -7z"/>
<path d="M976 3001 c-4 -7 -5 -15 -2 -18 9 -9 19 4 14 18 -4 11 -6 11 -12 0z"/>
<path d="M979 2958 c-7 -81 -6 -139 2 -143 5 -4 8 28 8 74 0 45 -3 81 -5 81
-2 0 -4 -6 -5 -12z"/>
<path d="M968 2746 c-3 -24 0 -32 9 -29 15 6 18 49 4 57 -5 3 -11 -9 -13 -28z"/>
<path d="M1331 2505 c0 -17 24 -104 32 -111 4 -4 7 -1 6 7 -1 17 -37 118 -38
104z"/>
<path d="M3118 1695 c-17 -49 -16 -50 31 -34 28 10 33 8 50 -12 16 -19 22 -22
32 -11 11 10 10 12 -5 12 -10 0 -14 4 -10 12 4 6 3 8 -3 5 -6 -4 -13 0 -17 8
-3 8 -15 15 -26 15 -11 0 -20 5 -20 10 0 6 6 10 13 10 7 0 22 7 33 15 18 13
16 14 -22 15 -41 0 -42 -1 -56 -45z"/>
<path d="M3450 1684 c-41 -18 -108 -41 -147 -50 -40 -9 -73 -19 -73 -23 0 -18
39 -41 67 -41 19 0 57 -17 104 -49 41 -26 90 -53 110 -60 20 -6 51 -23 70 -37
l34 -25 10 25 c20 48 54 78 81 72 36 -9 30 12 -15 54 -22 20 -45 48 -50 64 -6
15 -15 24 -21 21 -5 -3 -10 3 -10 15 0 12 -4 19 -8 16 -5 -3 -16 3 -25 12 -20
21 -45 42 -49 41 -2 -1 -37 -16 -78 -35z"/>
<path d="M2985 1606 c-41 -12 -42 -15 -27 -42 8 -14 16 -15 65 -3 57 12 68 24
45 47 -15 15 -31 14 -83 -2z"/>
<path d="M2578 1553 c7 -3 16 -2 19 1 4 3 -2 6 -13 5 -11 0 -14 -3 -6 -6z"/>
<path d="M1548 1533 c6 -2 18 -2 25 0 6 3 1 5 -13 5 -14 0 -19 -2 -12 -5z"/>
<path d="M2695 1530 c4 -6 11 -8 16 -5 14 9 11 15 -7 15 -8 0 -12 -5 -9 -10z"/>
<path d="M2810 1534 c0 -5 -15 -8 -34 -6 -18 2 -45 -2 -60 -10 l-26 -14 68
-28 c140 -58 138 -58 152 -40 7 8 20 14 29 14 30 0 41 13 26 33 -12 16 -16 17
-46 4 -33 -14 -35 -14 -71 21 -21 20 -38 32 -38 26z"/>
<path d="M3331 1513 c7 -12 15 -20 18 -17 3 2 -3 12 -13 22 -17 16 -18 16 -5
-5z"/>
<path d="M3062 1489 l-24 -9 29 -34 c22 -27 33 -33 53 -29 37 8 37 11 0 47
-29 29 -39 33 -58 25z"/>
<path d="M1635 1419 c21 -10 44 -18 50 -16 14 5 -49 37 -72 37 -11 -1 -2 -9
22 -21z"/>
<path d="M1705 1390 c3 -5 8 -10 11 -10 2 0 4 5 4 10 0 6 -5 10 -11 10 -5 0
-7 -4 -4 -10z"/>
<path d="M3030 1390 c0 -5 5 -10 10 -10 6 0 10 5 10 10 0 6 -4 10 -10 10 -5 0
-10 -4 -10 -10z"/>
<path d="M4673 563 c15 -2 37 -2 50 0 12 2 0 4 -28 4 -27 0 -38 -2 -22 -4z"/>
<path d="M4298 453 c7 -3 16 -2 19 1 4 3 -2 6 -13 5 -11 0 -14 -3 -6 -6z"/>
<path d="M3950 237 c0 -14 173 -48 314 -62 88 -8 164 -15 170 -14 6 0 -47 16
-119 35 -98 26 -159 36 -247 41 -65 3 -118 3 -118 0z"/>
<path d="M4957 214 c-9 -10 72 -73 102 -80 65 -13 61 -16 61 37 l0 49 -78 0
c-43 0 -81 -3 -85 -6z"/>
<path d="M4863 89 c45 -13 57 -34 33 -57 -13 -14 -45 -18 -164 -23 -125 -4
-107 -5 121 -7 l267 -2 0 34 0 34 -77 10 c-43 6 -109 13 -148 16 -62 5 -66 4
-32 -5z"/>
<path d="M2008 73 c7 -3 16 -2 19 1 4 3 -2 6 -13 5 -11 0 -14 -3 -6 -6z"/>
<path d="M4368 3 c6 -2 18 -2 25 0 6 3 1 5 -13 5 -14 0 -19 -2 -12 -5z"/>
<path d="M4418 3 c7 -3 16 -2 19 1 4 3 -2 6 -13 5 -11 0 -14 -3 -6 -6z"/>
<path d="M4478 3 c12 -2 30 -2 40 0 9 3 -1 5 -23 4 -22 0 -30 -2 -17 -4z"/>
</g>
</svg>
